<svg width="605" height="120" viewBox="0 0 605 120" fill="none" xmlns="http://www.w3.org/2000/svg">
<path d="M444 4.00011L444 8.00011L444 8.00011L444 4.00011ZM274.5 89.9999L274.5 85.9999L274.5 85.9999L274.5 89.9999ZM1.6716 87.1715C0.109506 88.7336 0.109506 91.2663 1.6716 92.8284L27.1275 118.284C28.6896 119.846 31.2222 119.846 32.7843 118.284C34.3464 116.722 34.3464 114.189 32.7843 112.627L10.1569 89.9999L32.7843 67.3725C34.3464 65.8104 34.3464 63.2778 32.7843 61.7157C31.2222 60.1536 28.6895 60.1536 27.1274 61.7157L1.6716 87.1715ZM334.5 4.00011L334.5 8.00011H334.5L334.5 4.00011ZM304.5 34.0002L308.5 34.0002L308.5 34.0002L304.5 34.0002ZM304.5 59.9998L300.5 59.9998L300.5 59.9998L304.5 59.9998ZM604.5 3.16749e-05L444 0.000114664L444 8.00011L604.5 8.00003L604.5 3.16749e-05ZM274.5 85.9999L4.50003 85.9999L4.50003 93.9999L274.5 93.9999L274.5 85.9999ZM444 0.000114664L334.5 0.000114863L334.5 8.00011L444 8.00011L444 0.000114664ZM300.5 34.0002L300.5 59.9998L308.5 59.9998L308.5 34.0002L300.5 34.0002ZM334.5 0.000114863C315.722 0.000113517 300.5 15.2225 300.5 34.0002L308.5 34.0002C308.5 19.6407 320.141 8.00011 334.5 8.00011L334.5 0.000114863ZM274.5 93.9999C293.278 93.9999 308.5 78.7775 308.5 59.9998L300.5 59.9998C300.5 74.3592 288.86 85.9999 274.5 85.9999L274.5 93.9999Z" fill="#333333"/>
</svg>
