<svg width="157" height="124" viewBox="0 0 157 124" fill="none" xmlns="http://www.w3.org/2000/svg">
<path d="M153 31.5001L157 31.5001L153 31.5001ZM123 61.5L123 65.5L123 65.5L123 61.5ZM60.0002 61.5L60.0002 57.5L60.0002 57.5L60.0002 61.5ZM30.0002 91.5L34.0002 91.5V91.5L30.0002 91.5ZM27.1717 122.828C28.7338 124.39 31.2665 124.39 32.8286 122.828L58.2844 97.3726C59.8465 95.8105 59.8465 93.2778 58.2845 91.7157C56.7224 90.1536 54.1897 90.1536 52.6276 91.7157L30.0002 114.343L7.37276 91.7157C5.81067 90.1536 3.27801 90.1536 1.71591 91.7157C0.153812 93.2778 0.153812 95.8105 1.71591 97.3726L27.1717 122.828ZM149 -4.07624e-05L149 31.5001L157 31.5001L157 -1.69722e-05L149 -4.07624e-05ZM123 57.5L60.0002 57.5L60.0002 65.5L123 65.5L123 57.5ZM26.0002 91.5L26.0002 120L34.0002 120L34.0002 91.5L26.0002 91.5ZM60.0002 57.5C41.2225 57.5 26.0002 72.7223 26.0002 91.5L34.0002 91.5C34.0002 77.1406 45.6408 65.5 60.0002 65.5L60.0002 57.5ZM149 31.5001C149 45.8594 137.359 57.5 123 57.5L123 65.5C141.778 65.5 157 50.2777 157 31.5001L149 31.5001Z" fill="black"/>
</svg>
