<svg width="244" height="114" viewBox="0 0 244 114" fill="none" xmlns="http://www.w3.org/2000/svg">
<path d="M242.328 32.3284C243.891 30.7663 243.891 28.2337 242.328 26.6716L216.873 1.21573C215.31 -0.346368 212.778 -0.346368 211.216 1.21573C209.654 2.77783 209.654 5.31049 211.216 6.87258L233.843 29.5L211.216 52.1274C209.654 53.6895 209.654 56.2222 211.216 57.7843C212.778 59.3464 215.31 59.3464 216.873 57.7843L242.328 32.3284ZM129.5 33.5H239.5V25.5H129.5V33.5ZM0 114H69.5V106H0V114ZM103.5 80V59.5H95.5V80H103.5ZM69.5 114C88.2777 114 103.5 98.7777 103.5 80H95.5C95.5 94.3594 83.8594 106 69.5 106V114ZM129.5 25.5C110.722 25.5 95.5 40.7223 95.5 59.5H103.5C103.5 45.1406 115.141 33.5 129.5 33.5V25.5Z" fill="black"/>
</svg>
