<svg width="51" height="52" viewBox="0 0 51 52" fill="none" xmlns="http://www.w3.org/2000/svg">
<g id="Logos/figma-original">
<path id="Vector" d="M18.1289 51.3984C22.8703 51.3984 26.6953 47.5734 26.6953 42.832V34.2656H18.1289C13.3875 34.2656 9.5625 38.0906 9.5625 42.832C9.5625 47.5734 13.3875 51.3984 18.1289 51.3984Z" fill="#0ACF83"/>
<path id="Vector_2" d="M9.5625 25.6992C9.5625 20.9578 13.3875 17.1328 18.1289 17.1328H26.6953V34.2656H18.1289C13.3875 34.2656 9.5625 30.4406 9.5625 25.6992Z" fill="#A259FF"/>
<path id="Vector_3" d="M9.5625 8.56641C9.5625 3.825 13.3875 0 18.1289 0H26.6953V17.1328H18.1289C13.3875 17.1328 9.5625 13.3078 9.5625 8.56641Z" fill="#F24E1E"/>
<path id="Vector_4" d="M26.6953 0H35.2617C40.0031 0 43.8281 3.825 43.8281 8.56641C43.8281 13.3078 40.0031 17.1328 35.2617 17.1328H26.6953V0Z" fill="#FF7262"/>
<path id="Vector_5" d="M43.8281 25.6992C43.8281 30.4406 40.0031 34.2656 35.2617 34.2656C30.5203 34.2656 26.6953 30.4406 26.6953 25.6992C26.6953 20.9578 30.5203 17.1328 35.2617 17.1328C40.0031 17.1328 43.8281 20.9578 43.8281 25.6992Z" fill="#1ABCFE"/>
</g>
</svg>
