<svg width="59" height="59" viewBox="0 0 59 59" fill="none" xmlns="http://www.w3.org/2000/svg">
<rect x="6" y="5" width="48" height="52" fill="#FAFAFA"/>
<path fill-rule="evenodd" clip-rule="evenodd" d="M0.460938 0.460938V58.4432C0.921875 58.481 0.917266 58.5515 1.08735 58.5515C17.8051 58.5566 34.5814 58.5566 51.2991 58.5566C53.601 58.5566 55.8435 58.5584 58.1459 58.5515C58.2971 58.551 58.5395 58.481 58.5395 58.4432L58.5391 0.460938H0.460938ZM53.0078 29.4604V51.8393C53.0078 52.6174 52.8912 52.5469 52.1413 52.5469H7.26945C6.5195 52.5469 6.45312 52.6179 6.45312 51.8398V7.02469C6.45312 6.24616 6.5195 5.99219 7.32614 5.99219H52.0846C52.8917 5.99219 53.0078 6.24616 53.0078 7.08138V29.4604ZM29.6908 18.6071C29.5922 18.302 29.4087 18.2863 29.1409 18.2877C27.7056 18.2965 26.2698 18.3195 24.8353 18.2877C24.3818 18.278 24.1849 18.414 24.0448 18.856C22.0236 25.2101 19.9807 31.5599 17.9452 37.9093C17.6133 38.9446 17.2921 39.984 16.9381 41.1078C18.2799 41.1078 19.506 41.0894 20.7311 41.1198C21.1474 41.1299 21.3207 40.993 21.4341 40.6008C21.9586 38.792 22.5265 36.9958 23.046 35.1857C23.1681 34.7588 23.3658 34.6436 23.795 34.6487C25.8342 34.6726 27.8743 34.6726 29.9135 34.6487C30.3103 34.6441 30.4717 34.7722 30.5841 35.1382C31.1432 36.9584 31.7374 38.7676 32.296 40.5879C32.4117 40.964 32.5569 41.1087 32.9907 41.0774C33.5937 41.0375 34.1979 41.0195 34.8022 41.0234H36.9188L36.9091 40.8709C34.5021 33.4465 32.0919 26.0333 29.6908 18.6071V18.6071ZM23.9692 31.3438C24.9081 28.1172 25.8402 24.9607 26.7583 21.8282C27.7046 24.9496 28.6671 28.1172 29.6438 31.3438H23.9692ZM37.7969 41.0234H42.4062V24.4297H37.7969V41.0234ZM40.1343 17.7714C38.7685 17.7728 37.76 18.7426 37.7692 20.0466C37.7784 21.3543 38.7473 22.2854 40.1002 22.2877C41.5065 22.2896 42.5007 21.3589 42.4911 20.0494C42.4809 18.7081 41.5106 17.7701 40.1343 17.7714Z" fill="#FAA625"/>
</svg>
