<svg width="59" height="59" viewBox="0 0 59 59" fill="none" xmlns="http://www.w3.org/2000/svg">
<rect x="6" y="5" width="48" height="52" fill="#FAFAFA"/>
<path fill-rule="evenodd" clip-rule="evenodd" d="M58.1777 0.335155C41.4812 0.330084 24.8593 0.330545 8.16228 0.330545C5.77416 0.330545 3.34502 0.328702 0.956906 0.335616C0.805719 0.336077 0.460938 0.406139 0.460938 0.444397V58.5391H58.5391V0.444397C58.5391 0.406139 58.3482 0.335155 58.1777 0.335155ZM52.3072 52.8539C37.2617 52.8364 22.2213 52.8401 7.17587 52.8401C6.44944 52.8401 6.45266 52.8387 6.45266 52.0901V7.01183C6.45312 6.27111 6.44575 6.45318 7.18002 6.45318H52.2588C53.0138 6.45318 53.0078 6.27065 53.0078 7.04825V29.5591C53.0078 37.0816 53.0046 44.6041 53.0244 52.1261C53.0263 52.699 52.8912 52.8544 52.3072 52.8539ZM26.1905 18.2735C23.1169 17.553 20.0231 17.9084 16.9325 18.2241C16.2766 18.2914 16.1512 18.5721 16.1531 19.1543C16.1729 26.1638 16.1328 33.1733 16.1328 40.1827V40.5626H20.2812V32.3297C22.5859 32.5026 24.6952 32.4616 26.757 31.7259C30.0614 30.5468 31.713 27.9873 31.5346 24.25C31.3903 21.2318 29.4945 19.0478 26.1905 18.2735V18.2735ZM25.2903 28.5726C23.818 29.2903 22.2527 29.2733 20.6786 29.0603C20.556 29.0437 20.3674 28.8248 20.3665 28.6989C20.3481 26.2417 20.3527 23.7849 20.3527 21.2603C21.7959 21.0354 23.1644 20.9257 24.5297 21.2686C26.2227 21.6941 27.205 22.7985 27.388 24.4569C27.589 26.2795 26.8132 27.8305 25.2903 28.5726V28.5726ZM40.6399 31.8481C39.9628 31.477 39.2202 31.2272 38.5169 30.9018C37.8669 30.6008 37.211 30.3044 36.5929 29.9449C36.1619 29.6946 35.966 29.2571 35.966 28.7414C35.966 27.8693 36.5625 27.1663 37.5812 27.0829C38.3412 27.0207 39.1304 27.099 39.8831 27.2396C40.5173 27.3576 41.1189 27.654 41.7646 27.8826L42.5791 24.993C41.0373 24.2444 39.4682 23.9628 37.8384 24.0204C36.4528 24.0688 35.1585 24.4219 33.9886 25.2184C31.8024 26.7068 30.7358 30.6607 34.0121 32.7852C34.8441 33.3249 35.8065 33.6632 36.7091 34.0947C37.2705 34.3634 37.8563 34.592 38.3873 34.9115C39.0566 35.3143 39.2843 35.9702 39.1682 36.7276C39.0543 37.472 38.5551 37.9435 37.8609 38.0523C37.0866 38.174 36.2633 38.2528 35.5019 38.1187C34.4237 37.9292 33.382 37.5282 32.2873 37.2065C32.0909 37.9394 31.9043 38.7501 31.6494 39.5388C31.5097 39.9712 31.5917 40.1846 32.0158 40.3537C34.6049 41.3821 37.2401 41.5937 39.8895 40.6842C41.8697 40.0044 43.0769 38.599 43.2341 36.4579C43.3871 34.3712 42.4468 32.8391 40.6399 31.8481V31.8481Z" fill="#80B5E2"/>
</svg>
