<svg width="48" height="48" viewBox="0 0 48 48" fill="none" xmlns="http://www.w3.org/2000/svg">
<path d="M26.0625 37.191C26.0404 36.9172 26.0273 36.741 26.0273 36.741C26.0273 36.741 25.2 31.1576 24.2138 29.4907C24.0585 29.2256 24.2299 28.143 24.6664 26.5357C24.9214 26.9741 25.9939 28.8577 26.2106 29.4645C26.4536 30.1485 26.5031 30.3446 26.5031 30.3446C26.5031 30.3446 25.9144 27.3139 24.9491 25.5457C25.1837 24.7576 25.4343 23.9743 25.7006 23.1964C26.0655 23.8376 26.943 25.3935 27.1361 25.9339C27.1744 26.0437 27.2081 26.1375 27.2374 26.2241C27.246 26.1727 27.2561 26.1214 27.2651 26.0689C27.0439 25.1299 26.6089 23.4964 26.0141 22.2881C27.3341 15.4151 31.8383 6.22912 36.4541 2.13037H6.3375C4.31738 2.13037 2.66663 3.78262 2.66663 5.80125V39.015C2.66663 41.0336 4.31888 42.6859 6.33788 42.6859H26.1742C26.024 40.8584 25.9868 39.0234 26.0629 37.1914" fill="#0B7FCC"/>
<path d="M24.6664 26.5357C24.9214 26.9737 25.9939 28.8562 26.2102 29.4641C26.4536 30.1481 26.5031 30.3442 26.5031 30.3442C26.5031 30.3442 25.9144 27.3134 24.9491 25.5453C25.1839 24.7566 25.4345 23.9727 25.7006 23.1941C26.0333 23.7817 26.7964 25.1324 27.0701 25.7711L27.1009 25.4107C26.8579 24.4747 26.4885 23.2484 26.0141 22.2877C27.2299 15.9611 31.1441 7.67393 35.3614 3.20093H6.33713C5.64775 3.20152 4.98677 3.47562 4.49926 3.96305C4.01176 4.45048 3.73757 5.11142 3.73688 5.8008V36.5921C10.3095 34.0679 18.2359 31.7621 25.0575 31.8618C24.8055 30.8849 24.5171 30.0018 24.2138 29.4903C24.0585 29.2252 24.2299 28.1414 24.6664 26.5357" fill="url(#paint0_linear_155_257)"/>
<path d="M43.4812 1.04285C41.4187 -0.796902 38.9198 -0.0570275 36.456 2.12997C36.0755 2.47038 35.7109 2.82814 35.3633 3.2021C31.1445 7.67435 27.2318 15.9607 26.016 22.2877C26.4893 23.2488 26.8597 24.4747 27.1012 25.4107C27.1642 25.6507 27.2212 25.8765 27.267 26.0685C27.3739 26.5211 27.4309 26.817 27.4309 26.817C27.4309 26.817 27.393 26.6733 27.2378 26.2237C27.2085 26.1375 27.1747 26.0422 27.1365 25.9338C27.1204 25.887 27.0971 25.8311 27.072 25.7711C26.7968 25.1325 26.0351 23.7817 25.701 23.196C25.4153 24.0397 25.1621 24.831 24.9495 25.5453C25.9162 27.3135 26.5054 30.3442 26.5054 30.3442C26.5054 30.3442 26.454 30.1481 26.2121 29.4641C25.9954 28.8562 24.9217 26.9741 24.6682 26.5357C24.2317 28.1411 24.0589 29.2252 24.2156 29.4907C24.519 30.0015 24.8059 30.8865 25.0594 31.8618C25.6309 34.062 26.0291 36.7413 26.0291 36.7413C26.0291 36.7413 26.0407 36.9172 26.0644 37.1913C25.9883 39.0233 26.0255 40.8581 26.1758 42.6855C26.3648 44.9767 26.7206 46.9466 27.1748 48L27.4852 47.8316C26.8174 45.756 26.5463 43.0342 26.6648 39.8981C26.8448 35.1007 27.948 29.3175 29.9857 23.2897C33.4324 14.1885 38.2125 6.88797 42.5865 3.4016C38.5991 7.00235 33.2029 18.6581 31.587 22.9747C29.7795 27.8088 28.4978 32.3437 27.7241 36.69C29.0554 32.6163 33.3667 30.8662 33.3667 30.8662C33.3667 30.8662 35.4806 28.257 37.9519 24.5332C36.4706 24.8718 34.0406 25.449 33.2276 25.7902C32.0276 26.2942 31.7025 26.4652 31.7025 26.4652C31.7025 26.4652 35.5916 24.0982 38.9287 23.0261C43.5165 15.7998 48.5145 5.5331 43.4816 1.04322" fill="#003956"/>
<defs>
<linearGradient id="paint0_linear_155_257" x1="21.9713" y1="3.88126" x2="21.9713" y2="34.7335" gradientUnits="userSpaceOnUse">
<stop stop-color="#95D7F4"/>
<stop offset="0.92" stop-color="#0F7FCC"/>
<stop offset="1" stop-color="#0F7FCC"/>
</linearGradient>
</defs>
</svg>
